HIERARCHY
ROOT Hips
{
	OFFSET -0.001795 -0.223333 0.028219
	CHANNELS 6 Xposition Yposition Zposition Zrotation Yrotation Xrotation 
	JOINT LeftUpLeg
	{
		OFFSET 0.069520 -0.091406 -0.006815
		CHANNELS 3 Zrotation Yrotation Xrotation
		JOINT LeftLeg
		{
			OFFSET 0.034277 -0.375199 -0.004496
			CHANNELS 3 Zrotation Yrotation Xrotation
			JOINT LeftFoot
			{
				OFFSET -0.013596 -0.397961 -0.043693
				CHANNELS 3 Zrotation Yrotation Xrotation
				JOINT LeftToe
				{
					OFFSET 0.026358 -0.055791 0.119288
					CHANNELS 3 Zrotation Yrotation Xrotation
					End Site
					{
						OFFSET 0.000000 0.000000 0.000000
					}
				}
			}
		}
	}
	JOINT RightUpLeg
	{
		OFFSET -0.067670 -0.090522 -0.004320
		CHANNELS 3 Zrotation Yrotation Xrotation
		JOINT RightLeg
		{
			OFFSET -0.038290 -0.382569 -0.008850
			CHANNELS 3 Zrotation Yrotation Xrotation
			JOINT RightFoot
			{
				OFFSET 0.015774 -0.398415 -0.042312
				CHANNELS 3 Zrotation Yrotation Xrotation
				JOINT RightToe
				{
					OFFSET -0.025372 -0.048144 0.123348
					CHANNELS 3 Zrotation Yrotation Xrotation
					End Site
					{
						OFFSET 0.000000 0.000000 0.000000
					}
				}
			}
		}
	}
	JOINT Spine
	{
		OFFSET -0.002533 0.108963 -0.026696
		CHANNELS 3 Zrotation Yrotation Xrotation
		JOINT Spine1
		{
			OFFSET 0.005487 0.135180 0.001092
			CHANNELS 3 Zrotation Yrotation Xrotation
			JOINT Spine2
			{
				OFFSET 0.001457 0.052922 0.025425
				CHANNELS 3 Zrotation Yrotation Xrotation
				JOINT Neck
				{
					OFFSET -0.002778 0.213870 -0.042857
					CHANNELS 3 Zrotation Yrotation Xrotation
					JOINT Head
					{
						OFFSET 0.005152 0.064970 0.051349
						CHANNELS 3 Zrotation Yrotation Xrotation
						End Site
						{
							OFFSET 0.000000 0.000000 0.000000
						}
					}
				}
				JOINT LeftShoulder
				{
					OFFSET 0.078845 0.121749 -0.034090
					CHANNELS 3 Zrotation Yrotation Xrotation
					JOINT LeftArm
					{
						OFFSET 0.090977 0.030469 -0.008868
						CHANNELS 3 Zrotation Yrotation Xrotation
						JOINT LeftForeArm
						{
							OFFSET 0.259612 -0.012772 -0.027456
							CHANNELS 3 Zrotation Yrotation Xrotation
							JOINT LeftHand
							{
								OFFSET 0.249234 0.008986 -0.001171
								CHANNELS 3 Zrotation Yrotation Xrotation
								End Site
								{
									OFFSET 0.000000 0.000000 0.000000
								}
							}
						}
					}
				}
				JOINT RightShoulder
				{
					OFFSET -0.081759 0.118833 -0.038615
					CHANNELS 3 Zrotation Yrotation Xrotation
					JOINT RightArm
					{
						OFFSET -0.096012 0.032551 -0.009143
						CHANNELS 3 Zrotation Yrotation Xrotation
						JOINT RightForeArm
						{
							OFFSET -0.253742 -0.013329 -0.021401
							CHANNELS 3 Zrotation Yrotation Xrotation
							JOINT RightHand
							{
								OFFSET -0.255298 0.007772 -0.005559
								CHANNELS 3 Zrotation Yrotation Xrotation
								End Site
								{
									OFFSET 0.000000 0.000000 0.000000
								}
							}
						}
					}
				}
			}
		}
	}
}
MOTION
Frames: 5
Frame Time: 0.050000
0.000000 0.847215 0.000000 -0.697576 -0.605537 -8.429421 17.459661 0.759385 -9.835498 -14.333430 5.489822 39.954213 8.432308 15.774949 -13.299043 0.000000 0.000000 0.000000 -12.986701 -0.111830 -13.621168 11.010051 -3.606583 42.942280 -7.298631 -16.373175 -13.593034 0.000000 0.000000 0.000000 5.174768 -1.016637 13.114866 -3.916038 1.624729 -22.489855 -3.035208 5.315665 22.252123 10.246126 -3.435756 -26.209207 0.000000 0.000000 0.000000 -2.355003 -23.070092 7.771060 -2.661049 -44.779000 -2.853338 39.276596 -32.604874 -11.420459 0.000000 0.000000 0.000000 6.108853 12.809458 5.273996 3.685837 50.529150 -2.033922 -31.413357 26.296494 -5.879404 0.000000 0.000000 0.000000
0.000021 0.845448 0.000336 -1.125802 -1.277414 -8.692121 19.370250 1.042612 -10.357691 -16.230293 6.770476 41.718112 8.166894 15.476758 -10.757023 0.000000 0.000000 0.000000 -12.110270 0.006309 -14.808920 10.779181 -3.523757 46.183573 -7.651323 -17.554355 -13.072326 0.000000 0.000000 0.000000 6.371873 -0.968792 11.586779 -4.591436 1.804953 -21.962840 -2.730837 5.679410 23.322053 10.691771 -3.889231 -25.260394 0.000000 0.000000 0.000000 -2.489943 -22.787680 7.698566 -0.452971 -45.254587 -3.614969 39.583178 -30.751488 -10.883834 0.000000 0.000000 0.000000 5.197325 13.291264 5.334721 2.757752 50.230358 -2.364709 -29.427708 26.484193 -5.525588 0.000000 0.000000 0.000000
0.000050 0.844168 0.000459 -0.543870 -0.539037 -9.033650 18.733772 0.864461 -9.372350 -15.366403 6.021016 40.468678 8.452633 15.913850 -12.354853 0.000000 0.000000 0.000000 -12.859762 -0.121940 -14.047479 10.031262 -3.231602 45.535194 -7.516536 -17.178310 -13.121136 0.000000 0.000000 0.000000 6.473025 -0.988585 11.687885 -4.209624 1.708835 -22.708820 -3.938187 5.569976 24.401427 10.794114 -3.728099 -26.685690 0.000000 0.000000 0.000000 -2.745121 -22.285850 7.531087 2.011255 -44.523401 -4.364072 36.622902 -31.992921 -10.469918 0.000000 0.000000 0.000000 5.979630 12.059711 4.998539 -1.194469 52.160975 -4.077554 -27.319331 26.324824 -5.077671 0.000000 0.000000 0.000000
0.000118 0.844642 0.000503 -0.816402 0.100324 -9.654399 18.848902 0.819959 -8.948898 -14.582893 5.560147 41.527101 8.576088 16.247716 -11.437993 0.000000 0.000000 0.000000 -12.493079 -0.127047 -13.465592 9.620391 -3.217796 46.522705 -7.601912 -17.550964 -13.461767 0.000000 0.000000 0.000000 7.674829 -1.044552 11.354039 -5.059269 1.987584 -21.478926 -4.497314 4.757652 23.368762 10.997736 -3.884663 -26.466357 0.000000 0.000000 0.000000 -1.242190 -22.912719 7.565808 4.467752 -44.686138 -5.067379 32.755676 -27.652975 -7.928978 0.000000 0.000000 0.000000 5.424553 11.643110 4.725941 -4.066019 52.569871 -5.203365 -22.528976 25.267168 -3.887087 0.000000 0.000000 0.000000
0.000134 0.845189 0.000789 -0.527795 -0.256247 -9.744137 18.401457 0.792202 -8.673653 -14.267990 5.448359 41.064200 8.799582 16.929359 -10.945063 0.000000 0.000000 0.000000 -12.520740 -0.112377 -13.635110 9.039147 -2.798416 46.794497 -7.646537 -17.686879 -12.937883 0.000000 0.000000 0.000000 7.487291 -1.044887 11.566242 -4.972050 1.959299 -21.328548 -4.476811 5.190951 22.795273 11.072590 -4.001986 -25.810479 0.000000 0.000000 0.000000 -1.909163 -23.466174 7.819640 6.193184 -43.881303 -5.440179 30.261286 -26.785001 -7.029724 0.000000 0.000000 0.000000 5.743935 11.501392 4.718823 -6.417765 52.436302 -6.088706 -20.241073 25.523412 -3.479232 0.000000 0.000000 0.000000
